<svg xmlns="http://www.w3.org/2000/svg" xmlns:xlink="http://www.w3.org/1999/xlink" width="27.966" height="36.723" viewBox="0 0 27.966 36.723">
  <defs>
    <style>
      .cls-1 {
        fill: #fff;
      }

      .cls-2 {
        clip-path: url(#clip-path);
      }
    </style>
    <clipPath id="clip-path">
      <path id="Path_109" data-name="Path 109" class="cls-1" d="M16.05-598.517H44.016V-635.24H16.05Z" transform="translate(636.922 1057.697)"/>
    </clipPath>
  </defs>
  <g id="Mask_Group_26" data-name="Mask Group 26" class="cls-2" transform="translate(-652.972 -422.457)">
    <g id="videogame_asset" transform="translate(652.972 430.803)">
      <path id="Path_106" data-name="Path 106" class="cls-1" d="M30.516,30.553H7.635c-1.4,0-2.542,1.5-2.542,3.338V47.245c0,1.836,1.144,3.338,2.542,3.338H30.516c1.4,0,2.542-1.5,2.542-3.338V33.892C33.058,32.055,31.914,30.553,30.516,30.553Zm0,16.692H7.635V33.892H30.516ZM11.448,45.576H13.99V42.238h2.542V38.9H13.99V35.561H11.448V38.9H8.906v3.338h2.542Z" transform="translate(-5.092 -30.553)"/>
      <path id="Path_107" data-name="Path 107" class="cls-1" d="M68.105,66.114a2.6,2.6,0,0,0,0-5.008,2.6,2.6,0,0,0,0,5.008Z" transform="translate(-50.944 -51.091)"/>
      <path id="Path_108" data-name="Path 108" class="cls-1" d="M88.474,50.837a2.267,2.267,0,0,0,1.907-2.5,1.978,1.978,0,1,0-3.814,0A2.267,2.267,0,0,0,88.474,50.837Z" transform="translate(-66.228 -40.822)"/>
    </g>
  </g>
</svg>
