<svg xmlns="http://www.w3.org/2000/svg" width="28.653" height="30.432" viewBox="0 0 28.653 30.432">
  <defs>
    <style>
      .cls-1 {
        fill: rgba(128,128,128,0.71);
      }
    </style>
  </defs>
  <g id="fi-rr-search" transform="translate(0.032 0.032)">
    <path id="Path_78" data-name="Path 78" class="cls-1" d="M28.272,28.239,21.155,20.68A13.25,13.25,0,0,0,19.922,3.246a11.443,11.443,0,0,0-16.456.437,13.259,13.259,0,0,0-.411,17.478,11.452,11.452,0,0,0,16.415,1.31l7.117,7.559a1.143,1.143,0,0,0,1.686,0,1.323,1.323,0,0,0,0-1.791ZM11.929,22.8c-5.268,0-9.538-4.536-9.538-10.131S6.661,2.541,11.929,2.541s9.538,4.536,9.538,10.131S17.194,22.8,11.929,22.8Z" transform="translate(0 0)"/>
  </g>
</svg>
