<svg xmlns="http://www.w3.org/2000/svg" width="27" height="26" viewBox="0 0 27 26">
  <defs>
    <style>
      .cls-1 {
        fill: #fff;
      }
    </style>
  </defs>
  <g id="Group_23" data-name="Group 23" transform="translate(-3605 268)">
    <g id="fi-rr-shopping-cart" transform="translate(3605 -268)">
      <path id="Path_93" data-name="Path 93" class="cls-1" d="M26.195,4.417A3.545,3.545,0,0,0,23.539,3.25H4.892l-.048-.38A3.391,3.391,0,0,0,1.409,0H1.153A1.12,1.12,0,0,0,0,1.083,1.12,1.12,0,0,0,1.153,2.167h.256a1.13,1.13,0,0,1,1.145.956L4.141,15.8a5.652,5.652,0,0,0,5.727,4.785H21.913a1.085,1.085,0,1,0,0-2.167H9.869A3.453,3.453,0,0,1,6.616,16.25H20.364a5.68,5.68,0,0,0,5.675-4.456l.905-4.717a3.1,3.1,0,0,0-.75-2.661ZM24.681,6.693l-.906,4.717a3.408,3.408,0,0,1-3.41,2.674H6.25L5.164,5.417H23.539a1.185,1.185,0,0,1,.89.386A1.037,1.037,0,0,1,24.681,6.693Z"/>
      <ellipse id="Ellipse_5" data-name="Ellipse 5" class="cls-1" cx="2.307" cy="2.167" rx="2.307" ry="2.167" transform="translate(5.766 21.667)"/>
      <ellipse id="Ellipse_6" data-name="Ellipse 6" class="cls-1" cx="2.307" cy="2.167" rx="2.307" ry="2.167" transform="translate(17.299 21.667)"/>
    </g>
  </g>
</svg>
